<svg id="Capa_1" data-name="Capa 1" xmlns="http://www.w3.org/2000/svg" viewBox="0 0 595.28 595.28">
  <defs>
    <style>
      .cls-1 {
        fill: #edf8fb;
      }

      .cls-2 {
        fill: #effafd;
      }

      .cls-3 {
        fill: #6693c3;
      }

      .cls-4 {
        fill: #044f88;
      }

      .cls-5 {
        fill: #5e97d0;
      }

      .cls-6 {
        fill: #1463a3;
      }

      .cls-7 {
        fill: #fff;
      }
    </style>
  </defs>
  <path class="cls-1" d="M324.08,47.2l1.26-.13c2.91-.06,4.73,1.56,6,3.94l-.23.3C327.72,51.79,325.12,50.84,324.08,47.2Z"/>
  <path class="cls-2" d="M494.19,168.39c-1-2.36-.88-4.84-.84-7.31C495.16,163.34,494,165.94,494.19,168.39Z"/>
  <path class="cls-2" d="M493.37,379a18.8,18.8,0,0,1,.82-7.3C494,374.11,495.14,376.71,493.37,379Z"/>
  <path class="cls-3" d="M239.34,46.09c-.76,1.82-2.28,2.09-4,2A5.47,5.47,0,0,1,239.34,46.09Z"/>
  <g>
    <path class="cls-4" d="M470.09,394c.92-.44,1.62.19,2.31.57q14.09,7.71,28.15,15.48c7.45,4.09,14.91,8.15,22.36,12.25q13.33,7.35,26.66,14.74c3.14,1.74,6.32,3.42,9.44,5.21,1.19.68,2.84-.19.76,2.79-3.77,5.4-9.23,8.69-14.87,11.8-9.77,5.4-19.45,11-29.19,16.44-6.1,3.42-12.23,6.77-18.33,10.19-8.72,4.89-17.42,9.84-26.14,14.74-6.09,3.42-12.23,6.77-18.32,10.2-8.48,4.77-16.92,9.6-25.4,14.37-6.1,3.42-12.24,6.77-18.33,10.19-8.72,4.89-17.42,9.84-26.14,14.74-7.11,4-14.25,7.93-21.36,11.93-8.66,4.86-17.25,9.87-26,14.6-7.77,4.2-15.11,9.28-23.36,12.52a28.55,28.55,0,0,1-23.76-1c-8.67-4.26-16.94-9.28-25.35-14-7.22-4.08-14.48-8.09-21.71-12.14-8.55-4.8-17.07-9.63-25.61-14.42-6.1-3.42-12.23-6.79-18.32-10.22-8.48-4.77-16.93-9.59-25.41-14.36-6.15-3.45-12.35-6.84-18.5-10.29-8.67-4.86-17.3-9.77-26-14.64-6.1-3.42-12.23-6.78-18.32-10.21-8.48-4.77-16.93-9.59-25.41-14.36-6.27-3.53-12.59-7-18.85-10.52-5.07-2.87-10.44-5.28-15.06-8.82S41.58,444,40,438.11c1-.31,1.38.43,1.8,1,.77,1.1,1.63,1,2.68.43Q54.69,433.65,65,427.84q15.78-9,31.52-18,13.95-8,27.9-16c1.49-.86,3-1.62,4.53-2.51a3.81,3.81,0,0,1,2.77-.62,4,4,0,0,1,1.94,2.07,198.5,198.5,0,0,0,24.1,33.44,193.54,193.54,0,0,0,110.59,61.54,157.81,157.81,0,0,0,18.92,2.27c5.11.27,10.21.87,15.32.73,18.1-.47,35.94-2.76,53.37-7.93A197.88,197.88,0,0,0,394.23,467,194.57,194.57,0,0,0,424,447a191.79,191.79,0,0,0,19.78-18.66,189.58,189.58,0,0,0,23.35-31.17C467.83,395.89,468.17,394.15,470.09,394Z"/>
    <path class="cls-5" d="M556.73,146.11a34.89,34.89,0,0,0-9.88-7.56c-9.08-5-18-10.14-27.05-15.18-6.65-3.71-13.36-7.31-20-11-8-4.47-16-9-24-13.49-6.41-3.58-12.87-7.07-19.28-10.66-8.72-4.89-17.39-9.86-26.11-14.74-6.65-3.72-13.36-7.31-20-11-8.08-4.5-16.11-9.08-24.19-13.59-6.35-3.55-12.75-7-19.1-10.56-9-5-18-10.15-27-15.22-5.33-3-10.61-6.09-16-9-5.72-3-11.14-6.69-17.93-7.42s-13.33-.26-19.35,2.85c-8.27,4.27-16.31,9-24.43,13.57C253.62,28,244.94,33,236.22,37.84c-6.4,3.59-12.86,7.08-19.28,10.67-8.84,4.94-17.65,9.93-26.49,14.88-6.29,3.52-12.61,7-18.9,10.52-8.77,4.93-17.52,9.9-26.3,14.82-5.1,2.86-10.25,5.64-15.34,8.51-8.48,4.77-16.91,9.6-25.39,14.36-6.59,3.68-13.24,7.26-19.83,10.94Q71.33,130,58,137.54c-4.59,2.62-9.21,5.13-12.78,9.3A29.09,29.09,0,0,0,38,165.29c-.29,9.41,0,18.84,0,28.27,0,.34-.07.69-.07,1q0,116.45,0,232.9a26.3,26.3,0,0,0,2,10.62,5.2,5.2,0,0,1,.53.63c1.91,3.12,1.87,3,5,1.26,9.42-5.4,18.88-10.72,28.31-16.09q13.7-7.79,27.38-15.62,15.15-8.61,30.31-17.19c.85-1.44-.17-2.55-.75-3.65a193.82,193.82,0,0,1-14.91-37.12,188,188,0,0,1-7-41.43,144.33,144.33,0,0,1-.22-18c.52-7.38,1-14.75,2.06-22.07.15-1,.51-2.22-.37-3.16a1.51,1.51,0,0,0,.4-.23,5.76,5.76,0,0,0,.88-2.52c.48-2.44.92-4.89,1.47-7.32a194.29,194.29,0,0,1,22-55.79,188.65,188.65,0,0,1,24.53-33.15,192.81,192.81,0,0,1,30-26.43,193.43,193.43,0,0,1,113.29-35.94c4.27,0,8.56.36,12.83.67a189.18,189.18,0,0,1,22.39,2.94A191.43,191.43,0,0,1,406.5,135.4a183,183,0,0,1,29,23.08c4.5,4.42,8.91,8.9,13,13.73a204.7,204.7,0,0,1,17.68,24.32c.86,1.39.66,2.23-.74,3-8.91,5-17.8,10.14-26.69,15.23q-15.31,8.76-30.65,17.52c-7.08,4.06-14.19,8.08-21.27,12.17-1.32.76-2.33.91-3.3-.6a97.21,97.21,0,0,0-19-21.33,92.69,92.69,0,0,0-26-15.77c-8.09-3.23-14.7-4.41-27.94-6.73-14.06-2.47-21.09-3.7-29.61-3.12a101.36,101.36,0,0,0-27.55,6.15,80,80,0,0,0-9.33,3.87c-14.8,7.4-23.26,18.31-27.32,23.68-3.65,4.81-6.23,9.66-11.39,19.35-8.57,16.11-12.86,24.17-13.66,32.55-.93,9.79,2.64,7.07,4.56,26.87,1.37,14.13.33,23.59,7.28,32.33a29.11,29.11,0,0,0,4.56,4.55,65.52,65.52,0,0,0,10.86-4.19c3.53-1.74,5.31-3,15.71-8.91,2.78-1.59,1-.49,20.49-11.71,8.33-4.8,21.71-12.6,40.31-23.79C301.6,297.23,559.47,149.26,556.73,146.11Z"/>
    <path class="cls-4" d="M385.3,346.68a99.56,99.56,0,0,1-22.79,26.41c-8,6.46-15.89,10.24-23.06,13.78a120,120,0,0,1-19,7.9,90.38,90.38,0,0,1-23.67,4.55c-4.33.17-11,0-33-6.6-20.12-6-30.18-9.07-35.75-13.43-4.88-3.82-15-13.26-19.8-33,5.7-2.92,14.22-7.36,24.48-13,4.69-2.59,11.58-6.58,25.42-14.48l27.74-15.85c2.59-1.47,5.23-2.85,7.78-4.38,1.39-.84,2.31-1.37,4.12-.2,4.34,2.82,9.05,5.07,13.59,7.57q16.1,8.86,32.17,17.74c7.58,4.16,15.18,8.28,22.76,12.45C372.62,339.6,379,343.15,385.3,346.68Z"/>
    <path class="cls-6" d="M295.57,297.68,556.3,144.55s8.61,2.67,8.55,42.62-.51,242.75-.51,242.75a23.91,23.91,0,0,1-2.7,11.75c-.28.52-.58,1-.88,1.48Z"/>
    <g>
      <path class="cls-7" d="M383.57,246a102.06,102.06,0,0,0-41.84-38,103.18,103.18,0,0,0-40.3-9.91C272.2,196.9,247,207.46,226.8,228.7a98.09,98.09,0,0,0,4.53,139.58c22.88,21.11,50.34,29.55,81.18,25s54.1-21.11,70.78-47.72l86.36,47.53c-36.74,68.28-116.36,108.75-195.06,99.24-102.67-12.4-174.9-100.57-174.49-196,.42-97.46,68.43-175.39,157.37-193.81,96.8-20.05,177.7,33.51,210.73,93.6Z"/>
      <path class="cls-7" d="M368.49,310.23V282c1.51-.07,2.81-.18,4.12-.19,6.74,0,13.47-.08,20.21,0,2.53.05,3.49-.81,3.44-3.39-.12-7.1.09-14.21-.1-21.31-.08-3.08,1-4.06,4-4,7.1.15,14.21.19,21.31,0,3.33-.1,4.2,1.19,4.12,4.3-.18,6.73.08,13.47-.12,20.2-.09,3.16.8,4.35,4.12,4.24,6.85-.23,13.72,0,20.57-.11,2.51-.05,3.47.69,3.42,3.3q-.21,11,0,22.05c.05,2.51-.71,3.44-3.32,3.39-7.1-.15-14.21,0-21.31-.09-2.52,0-3.49.81-3.45,3.39.12,7.22,0,14.45.08,21.68,0,2.71-1,3.66-3.65,3.62-7.35-.12-14.7-.14-22,0-3,.06-3.77-1.13-3.71-3.92.15-7-.06-14,.1-20.94.07-2.84-.8-3.92-3.75-3.84-6.61.17-13.23.06-19.84,0C371.36,310.4,370.05,310.3,368.49,310.23Z"/>
      <path class="cls-7" d="M467,310.41V281.76h18.77c9,0,9,0,9-9.14,0-5.26.12-10.53,0-15.79-.08-2.65.75-3.76,3.52-3.71q11.2.18,22.41,0c2.8-.05,3.54,1.12,3.49,3.74-.13,7,.08,14-.1,20.93-.07,3,.81,4.11,3.93,4,7.81-.18,15.63-.06,23.77-.06V310.2c-1.2.07-2.49.2-3.77.2-6.49,0-13,.21-19.47-.07-3.66-.15-4.59,1.18-4.47,4.64.24,6.72,0,13.46.12,20.19.07,2.83-.77,4-3.71,3.9q-11-.21-22,0c-3,.06-3.77-1.1-3.7-3.91.16-6.85-.09-13.71.11-20.56.1-3.15-.78-4.37-4.11-4.25-6.48.24-13,.07-19.46.07Z"/>
    </g>
  </g>
</svg>
