<svg id="Capa_1" data-name="Capa 1" xmlns="http://www.w3.org/2000/svg" viewBox="0 0 595.28 595.28">
  <defs>
    <style>
      .cls-1 {
        fill: #fdfefe;
      }

      .cls-2 {
        fill: #115c34;
      }

      .cls-3 {
        fill: #1ba566;
      }

      .cls-4 {
        fill: #077d3f;
      }

      .cls-5 {
        fill: #2fc582;
      }

      .cls-6 {
        fill: #0a4425;
      }

      .cls-7 {
        fill: #063219;
      }

      .cls-8 {
        fill: #067337;
      }

      .cls-9 {
        fill: #18935c;
      }

      .cls-10 {
        fill: #032512;
      }
    </style>
  </defs>
  <rect class="cls-1" x="27.85" y="203.44" width="214.16" height="228.84"/>
  <path class="cls-2" d="M569.65,567.68H163.91c0-1.16-1-1-1.74-1.21a24.94,24.94,0,0,1-17.79-24.34c.13-5.79,0-11.59,0-17.38l.06-38.19c1.32,0,2.63,0,3.95,0H294a29.47,29.47,0,0,0,8-1.16,23.89,23.89,0,0,0,13.07-9.16,23.3,23.3,0,0,0,4.76-13.68c.08-7.28,0-14.57,0-21.85q0-12,0-23.94,0-59.69,0-119.39h13.68l40.07,0h0q0,66,0,132c0,.53,0,1.06,0,1.58a1.25,1.25,0,0,0,1.31,1.34c.61,0,1.23,0,1.84,0H589.67v117c-1.12,0-1.07,1-1.32,1.7A24.36,24.36,0,0,1,571,566.65C570.35,566.81,569.73,566.89,569.65,567.68Z"/>
  <path class="cls-3" d="M589.67,162.48V297.37l-2.37,0h-211c-.88,0-1.76,0-2.64,0h0q0-65.45,0-130.88c0-1.32,0-2.64,0-3.95l.11-.11c.88,0,1.76.08,2.63.08Z"/>
  <path class="cls-4" d="M373.65,297.35c.88,0,1.76,0,2.64,0h211l2.37,0V432.26H376.83c-.61,0-1.23,0-1.84,0a1.25,1.25,0,0,1-1.31-1.34c0-.52,0-1.05,0-1.58Q373.64,363.34,373.65,297.35Z"/>
  <path class="cls-5" d="M589.67,162.48H376.34c-.87,0-1.75-.06-2.63-.08,0-1.23-.06-2.46-.06-3.69q0-65.56,0-131.13H570.7c-.09,1.26,1,.87,1.58,1.05a25.09,25.09,0,0,1,16.35,16.2c.16.48-.1,1.5,1,1.2Z"/>
  <path class="cls-3" d="M373.63,27.59q0,65.57,0,131.13c0,1.23,0,2.46.06,3.69l-.11.11-40,0,0-.07c-.25-2.43-.33-4.9-.8-7.29-2.14-10.75-12.61-19.68-24.42-19.65-54.62.15-109.24.06-163.85.06,0-.44-.11-.87-.11-1.31q0-41.34,0-82.66a23.17,23.17,0,0,1,4.48-13.53,25,25,0,0,1,12.45-9.3c.57-.2,1.77.13,1.5-1.21Z"/>
  <path class="cls-4" d="M333.56,162.55l40,0c0,1.31,0,2.63,0,3.95q0,65.44,0,130.88l-40.07,0q0-31.61,0-63.2Q333.58,198.35,333.56,162.55Z"/>
  <path class="cls-6" d="M144.46,486.56l0-26.88,4.47,0c46.1-.32,92.21.66,138.31-.51a2.07,2.07,0,0,0,1.45.5,61.56,61.56,0,0,0,7.06,0,29,29,0,0,0,9.35-2.26,26,26,0,0,0,13.65-15.1c.24-.66.28-1.39,1.15-1.55,0,7.28.08,14.57,0,21.85a23.3,23.3,0,0,1-4.76,13.68A23.89,23.89,0,0,1,302,485.38a29.47,29.47,0,0,1-8,1.16H148.41C147.09,486.53,145.78,486.55,144.46,486.56Z"/>
  <path class="cls-7" d="M319.87,440.69c-.87.16-.91.89-1.15,1.55a26,26,0,0,1-13.65,15.1,29,29,0,0,1-9.35,2.26,61.56,61.56,0,0,1-7.06,0,2.07,2.07,0,0,1-1.45-.5,6.05,6.05,0,0,1,2.37-1.06c3.84-1.57,7.45-3.49,10.28-6.63,5.78-6.41,7-14.09,6.28-22.32a1.81,1.81,0,0,0-.59-1.14c0-1.76.65-3.42.65-5.2q0-32.67,0-65.36,0-21.19.05-42.39c0-5.88,0-11.76.06-17.64l13.59,0,0,0q0,59.7,0,119.39Q319.89,428.72,319.87,440.69Z"/>
  <path class="cls-8" d="M333.56,162.55q0,35.8,0,71.62,0,31.61,0,63.2H319.91l0,0q0-62.13,0-124.24a21.27,21.27,0,0,0-1.06-6.19c-.46-1.5-1.06-3-1.6-4.45l16.36,0Z"/>
  <path class="cls-9" d="M333.58,162.48l-16.36,0a2.84,2.84,0,0,0-.42-.09,22.39,22.39,0,0,0-15.52-12.51c-4.72-1.16-9.66-1.07-14.53-1-3.73-.44-7.4.79-11.13.44H200.27a2.66,2.66,0,0,0-2-.52c-7.64,0-15.3-.41-22.9.11-8.43.58-16.83.15-25.24.41a23.44,23.44,0,0,1-5.73-.53l.09-13.18c54.61,0,109.23.09,163.85-.06,11.81,0,22.28,8.9,24.42,19.65C333.25,157.58,333.33,160.05,333.58,162.48Z"/>
  <path class="cls-10" d="M144.38,446l9-.14c1.14,0,2.28.06,3.42.06h86.6c12.89,0,25.79.08,38.69,0a23.88,23.88,0,0,0,16.4-6.69A27.56,27.56,0,0,0,305.55,428a1.81,1.81,0,0,1,.59,1.14c.73,8.23-.5,15.91-6.28,22.32-2.83,3.14-6.44,5.06-10.28,6.63a6.05,6.05,0,0,0-2.37,1.06c-46.1,1.17-92.21.19-138.31.51l-4.47,0Q144.4,452.86,144.38,446Z"/>
  <path class="cls-1" d="M218,359q5.79,9.39,11.64,18.73a8.7,8.7,0,0,1-3.13.23l-34.16,0-1.67-2.67a22.67,22.67,0,0,0-2-4q-13.74-25.75-27.5-51.49c-1-1.77-1.75-3.62-2.72-5.63-.55.44-3.33,6.36-4.64,8.74q-14.4,26.29-28.76,52.61a3.88,3.88,0,0,1-4,2.43c-10.7-.12-34,.39-34.79-.57,5.91-9.12,46.2-71.47,50.83-78.61a2.28,2.28,0,0,0,.24-2.82c-6.12-10.14-46.52-77.73-46.62-78.74h5l32.89-.07c2.16,3.48,30.29,61,31.27,61.46,1.36-2.69,21.9-41.16,23.51-44.09,1.49-2.71,9.52-16.85,10-17.36l34.73.07c0,.95-40,65.76-47.55,78a5.72,5.72,0,0,1-.41.67c-.54.65,8.83,16,13.24,23,.21.48,11.27,18.55,16.61,27.1C211.46,348.4,216.79,357,218,359Z"/>
  <path class="cls-5" d="M128.62,217.22l-32.89.07h-5c.68-.82,1.62-.52,2.46-.53q16.45,0,32.91,0C127,216.78,127.88,216.56,128.62,217.22Z"/>
  <path class="cls-6" d="M306.18,199.37c0-9,0-18,0-27A21.71,21.71,0,0,0,305,166a14.36,14.36,0,0,1-1-3.51l12.79-.06a2.84,2.84,0,0,1,.42.09c.54,1.49,1.14,3,1.6,4.45a21.27,21.27,0,0,1,1.06,6.19q0,62.11,0,124.24l-13.59,0c0-.89-.07-1.78-.1-2.67V199.37Z"/>
  <path class="cls-2" d="M316.8,162.42l-12.79.06c-1.3-1-1.92-2.45-2.8-3.72-3.08-4.44-7.51-6.84-12.39-8.66-.74-.28-1.85,0-2.07-1.23,4.87,0,9.81-.12,14.53,1A22.39,22.39,0,0,1,316.8,162.42Z"/>
  <path class="cls-2" d="M192.37,378l34.16,0a8.7,8.7,0,0,0,3.13-.23c-.54,1.26-1.66.73-2.52.74-6.21.05-12.42,0-18.62,0H195.14C194.2,378.5,193.2,378.72,192.37,378Z"/>
  <path class="cls-4" d="M306.22,315.05c0-5.88,0-11.76.07-17.64l-.11-2.67h0V199.37c0-9,0-18,0-27A21.71,21.71,0,0,0,305,166a14.36,14.36,0,0,1-1-3.51c-1.3-1-1.92-2.45-2.8-3.72-3.08-4.44-7.51-6.84-12.39-8.66-.74-.28-1.85,0-2.07-1.23-3.73-.44-7.4.79-11.13.44H200.27a2.66,2.66,0,0,0-2-.52c-7.64,0-15.3-.41-22.9.11-8.43.58-16.83.15-25.24.41a23.44,23.44,0,0,1-5.73-.53c-1.07.6-2.24.36-3.36.36q-51.75,0-103.49,0c-1.49,0-3,0-4.47,0a24.07,24.07,0,0,0-8.87,1.93,25.43,25.43,0,0,0-9.52,7.42A29.66,29.66,0,0,0,9,169.33V282.62a2.43,2.43,0,0,1,.42.17,2.43,2.43,0,0,0-.42-.17V397c0,9.49,1,29.74,1.17,30.49,2.85,10.37,11.53,18,22.4,18.38,12.5.43,37.54-.2,37.55.05,1.14,0,2.28.08,3.42.08H141c1.14,0,2.28.05,3.42.08l9-.14h0c1.14,0,2.28.06,3.42.06h86.6c12.89,0,25.79.08,38.69,0a23.88,23.88,0,0,0,16.4-6.69A27.56,27.56,0,0,0,305.55,428c0-1.76.65-3.42.65-5.2q0-32.67,0-65.36h0Q306.19,336.25,306.22,315.05Zm-295.7-3.22c.05,1.32.1,2.63.16,3.94s.15,2.61.23,3.92c-.08-1.31-.17-2.62-.23-3.92s-.11-2.62-.16-3.94c-.14-3.93-.23-7.87-.42-11.81-.06-1.25-.1-2.5-.11-3.75,0,1.25,0,2.5.11,3.75C10.29,304,10.38,307.9,10.52,311.83ZM70.79,444.16m156.35-65.67c-6.21.05-12.42,0-18.62,0H195.14c-.94,0-1.94.21-2.77-.49l-1.67-2.67a52.46,52.46,0,0,0-6.58,3.32,29.66,29.66,0,0,1,6.58-3.32,22.67,22.67,0,0,0-2-4q-13.74-25.75-27.5-51.49c-1-1.77-1.75-3.62-2.72-5.63a3,3,0,0,0-.92,1.5,56.19,56.19,0,0,1-3.72,7.24q-14.4,26.29-28.76,52.61a3.88,3.88,0,0,1-4,2.43c-10.7-.12-21.4,0-32.11-.08-.89,0-1.94.47-2.68-.49-.1.54,0,.8.2.93a1,1,0,0,0,.5.1,1,1,0,0,1-.5-.1c-.2-.13-.3-.39-.2-.93,5.91-9.12,12-18.13,17.65-27.41,2-3.3,4-6.66,6.19-9.81,2.9-4.17,5.63-8.42,8.33-12.71,1.61-2.4,3.23-4.8,4.8-7.22,4.63-7.15,9.23-14.32,13.86-21.46a2.28,2.28,0,0,0,.24-2.82c-6.12-10.14-12.15-20.33-18.22-30.51a2.09,2.09,0,0,0-.36-.37,8.49,8.49,0,0,0-3,.88,8.49,8.49,0,0,1,3-.88c-.44-.85-.86-1.72-1.35-2.55Q104.73,241.24,92,219.85a6.4,6.4,0,0,1-1.28-2.55c.68-.82,1.62-.52,2.46-.53q16.45,0,32.91,0c.86,0,1.78-.21,2.52.45,2.16,3.48,3.73,7.25,5.68,10.83l1.37,2.5a101.25,101.25,0,0,0,5.19,10.75c6,11.65,12.06,23.32,17.62,35.22.34.73.43,1.66,1.41,2.16,1.36-2.69,3-5.11,3.79-7.94a12.16,12.16,0,0,1,1.17-2.3l4.92-9q2.28-4.19,4.58-8.36c1.42-2.55,2.88-5.08,4.29-7.63,1.61-2.93,3.15-5.9,4.76-8.83,1.49-2.71,3.07-5.36,4.54-8.08,1.39-2.56,2.66-5.19,4.05-7.76a8.72,8.72,0,0,1,1.41-1.52c.75-.66,1.66-.45,2.52-.45q14.87,0,29.74,0c.84,0,1.78-.27,2.47.51,0,.95-.7,1.59-1.14,2.32q-10.56,17.26-21.16,34.52c-.73,1.19-1.39,2.42-2.08,3.64a2.16,2.16,0,0,0,1-.18,2.16,2.16,0,0,1-1,.18,6.23,6.23,0,0,0-.66.8q-11.26,18.36-22.51,36.72a5.72,5.72,0,0,1-.41.67,1.43,1.43,0,0,0,0,1.9q6.63,10.56,13.23,21.13a11.33,11.33,0,0,0,.63,1.42q8,12.85,16,25.68a72.86,72.86,0,0,0,4.4,6.83A51,51,0,0,0,218,359q5.79,9.39,11.64,18.74C229.12,379,228,378.48,227.14,378.49Z"/>
  <path class="cls-5" d="M193.4,217.23c.75-.66,1.66-.45,2.52-.45q14.87,0,29.74,0c.84,0,1.78-.27,2.47.51Z"/>
</svg>
