<svg id="Capa_1" data-name="Capa 1" xmlns="http://www.w3.org/2000/svg" viewBox="0 0 595.28 595.28">
  <defs>
    <style>
      .cls-1 {
        fill: #3174b9;
      }

      .cls-1, .cls-2 {
        fill-rule: evenodd;
      }

      .cls-2 {
        fill: #ca3132;
      }
    </style>
  </defs>
  <g>
    <path class="cls-1" d="M224,315.52s-15.39,9,11,12c31.92,3.65,48.23,3.12,83.4-3.53a144.83,144.83,0,0,0,22.18,10.81C261.69,368.57,162.08,332.82,224,315.52Zm-9.64-44.1s-17.26,12.78,9.11,15.5c34.1,3.52,61,3.81,107.63-5.16a47.44,47.44,0,0,0,16.56,10.1C252.34,319.75,146.16,294.06,214.37,271.42Z"/>
    <path class="cls-2" d="M295.6,196.61c19.44,22.38-5.1,42.5-5.1,42.5s49.34-25.46,26.68-57.36C296,152,279.79,137.24,367.64,86.3,367.64,86.29,229.74,120.72,295.6,196.61Z"/>
    <path class="cls-1" d="M399.89,348.14s11.39,9.39-12.54,16.65c-45.51,13.78-189.44,17.94-229.42.54-14.36-6.25,12.59-14.92,21.06-16.75,8.84-1.91,13.89-1.57,13.89-1.57-16-11.25-103.3,22.11-44.35,31.68C309.29,404.75,441.59,367,399.89,348.14ZM231.41,225.73s-73.2,17.39-25.92,23.71c20,2.67,59.75,2.06,96.84-1.05,30.3-2.55,60.71-8,60.71-8a129.32,129.32,0,0,0-18.41,9.86c-74.35,19.55-217.95,10.45-176.61-9.55,35-16.91,63.39-15,63.39-15Zm131.33,73.4c75.57-39.26,40.63-77,16.24-71.92a56.91,56.91,0,0,0-8.64,2.33,13.68,13.68,0,0,1,6.45-5c48.25-17,85.36,50-15.56,76.55A6.7,6.7,0,0,0,362.74,299.13Z"/>
    <path class="cls-2" d="M317.18,4S359,45.89,277.48,110.25c-65.39,51.65-14.91,81.09,0,114.75-38.18-34.44-66.18-64.77-47.4-93,27.58-41.42,104-61.5,87.12-128Z"/>
    <path class="cls-1" d="M238.84,405.55c72.53,4.64,183.93-2.57,186.58-36.9,0,0-5.08,13-59.95,23.33-61.92,11.66-138.29,10.3-183.57,2.83C181.9,394.81,191.18,402.48,238.84,405.55Z"/>
    <path class="cls-2" d="M422.06,467.11h-2.2v-1.24h5.95v1.24H423.6v6.17h-1.54Zm11.88.3h0l-2.19,5.87h-1l-2.17-5.87h0v5.87h-1.46v-7.41h2.14l2,5.24,2-5.24h2.13v7.41h-1.42v-5.87ZM227,536.69c-6.84,5.93-14.07,9.26-20.56,9.26-9.25,0-14.27-5.55-14.27-14.44,0-9.63,5.37-16.67,26.88-16.67h8v21.85ZM245.84,558V492.06c0-16.85-9.61-28-32.78-28a86.42,86.42,0,0,0-35,7.59l2.78,11.68c7.59-2.79,17.4-5.37,27-5.37,13.34,0,19.09,5.37,19.09,16.48v8.34h-6.67c-32.42,0-47,12.58-47,31.49,0,16.29,9.64,25.55,27.79,25.55,11.66,0,20.38-4.81,28.51-11.86L231,558Zm63,0H285.31L257,465.76h20.56l17.6,56.68,3.91,17a355.34,355.34,0,0,0,18.33-73.71h20C332,496.13,322.36,529.47,308.85,558Zm90.34-21.3c-6.86,5.93-14.09,9.26-20.57,9.26-9.25,0-14.26-5.55-14.26-14.44,0-9.63,5.37-16.67,26.87-16.67h8ZM418.07,558V492.06c0-16.85-9.64-28-32.78-28a86.39,86.39,0,0,0-35,7.59l2.78,11.68c7.59-2.79,17.42-5.37,27.05-5.37,13.32,0,19.08,5.37,19.08,16.48v8.34h-6.67c-32.43,0-47,12.58-47,31.49,0,16.29,9.62,25.55,27.77,25.55,11.67,0,20.37-4.81,28.53-11.86l1.49,10ZM152.54,573.66c-5.38,7.86-14.08,14.09-23.59,17.6l-9.33-11c7.25-3.72,13.46-9.72,16.35-15.31,2.49-5,3.53-11.38,3.53-26.7V433h20.06V536.81C159.56,557.31,157.93,565.59,152.54,573.66Z"/>
  </g>
</svg>
