<svg id="Capa_1" data-name="Capa 1" xmlns="http://www.w3.org/2000/svg" viewBox="0 0 595.28 595.28">
  <defs>
    <style>
      .cls-1, .cls-3 {
        fill: #00618a;
      }

      .cls-2, .cls-4 {
        fill: #e48e00;
      }

      .cls-3, .cls-4 {
        fill-rule: evenodd;
      }
    </style>
  </defs>
  <path class="cls-1" d="M3.69,419.06H23V342.88l29.87,66.44c3.53,8,8.36,10.89,17.82,10.89s14.1-2.85,17.63-10.89l29.88-66.44v76.21h19.3V343c0-7.42-3-11-9.1-12.87-14.66-4.57-24.49-.61-28.94,9.28L70.13,405l-28.4-65.6c-4.27-9.89-14.28-13.85-28.94-9.27C6.66,332,3.69,335.56,3.69,343Zm149.84-62h19.29v42c-.18,2.28.73,7.63,11.3,7.8,5.4.08,41.63,0,42,0v-50h19.34c.08,0,0,68.17,0,68.46.1,16.81-20.86,20.47-30.53,20.75H154v-13h61c12.42-1.31,11-7.48,11-9.56v-5.07h-41c-19.08-.17-31.23-8.5-31.38-18.08,0-.86.41-42.89,0-43.31Z"/>
  <path class="cls-2" d="M260.3,419.06h55.48a42.67,42.67,0,0,0,17.82-3.71c8.36-3.83,12.44-9,12.44-15.83v-14.1c0-5.57-4.64-10.77-13.73-14.23a47.39,47.39,0,0,0-16.52-2.85H292.41c-7.79,0-11.5-2.35-12.43-7.54a5.53,5.53,0,0,1-.19-1.74v-8.78a5.06,5.06,0,0,1,.19-1.61c.93-4,3-5.07,9.83-5.72.56,0,1.3-.12,1.86-.12h55.11V330H292.6c-7.79,0-11.88.5-15.59,1.61-11.51,3.59-16.53,9.31-16.53,19.21V362c0,8.66,9.84,16.08,26.35,17.81,1.86.12,3.72.25,5.57.25h20a10.61,10.61,0,0,1,2,.12c6.12.5,8.73,1.61,10.58,3.83a4.57,4.57,0,0,1,1.49,3.44v11.25c0,1.37-.93,3.1-2.79,4.58-1.67,1.49-4.45,2.48-8.16,2.72-.74,0-1.3.13-2,.13H260.3v12.89Zm206.12-22.39c0,13.24,9.84,20.66,29.69,22.15,1.85.14,3.71.22,5.57.24H552V406.2H501.31c-11.32,0-15.59-2.85-15.59-9.65V330h-19.3v66.68Zm-108.07.67V351.48c0-11.65,8.18-18.72,24.36-21a36.17,36.17,0,0,1,5.2-.37h36.64a39,39,0,0,1,5.39.37c16.18,2.23,24.36,9.29,24.36,21v45.86c0,9.46-3.48,14.52-11.49,17.81l19,17.17h-22.4L424,418.43l-15.49,1H387.91a42.55,42.55,0,0,1-11.34-1.61c-12.3-3.35-18.22-9.79-18.22-20.46Zm20.83-1.14a8.73,8.73,0,0,0,.37,2c1.15,5.34,6.14,8.31,13.73,8.31h17.53L394.71,392h22.41l14,12.68a9.07,9.07,0,0,0,4.87-6.2,6.5,6.5,0,0,0,.18-1.86v-44a6,6,0,0,0-.18-1.74c-1.15-5-6.14-7.81-13.58-7.81H393.31c-8.58,0-14.12,3.72-14.12,9.55v43.6Z"/>
  <g>
    <path class="cls-1" d="M569,308.65c-11.87-.32-20.93.78-28.68,4-2.2.93-5.71,1-6.07,3.72,1.21,1.26,1.4,3.16,2.36,4.72a37.34,37.34,0,0,0,7.76,9.1c3,2.3,6.18,4.76,9.45,6.75,5.81,3.54,12.29,5.57,17.88,9.11,3.29,2.09,6.56,4.72,9.78,7.08,1.59,1.17,2.66,3,4.72,3.71v-.34c-1.09-1.38-1.37-3.28-2.36-4.71l-4.39-4.39a71.37,71.37,0,0,0-15.51-14.84c-4.62-3.32-14.95-7.79-16.87-13.16l-.34-.34a74.75,74.75,0,0,0,10.13-2.36c5.07-1.36,9.6-1,14.84-2.36l7.09-2V311c-2.65-2.72-4.54-6.32-7.43-8.77A215.36,215.36,0,0,0,547,284c-4.71-3-10.53-4.91-15.52-7.42-1.68-.85-4.62-1.29-5.73-2.71-2.62-3.34-4-7.57-6.07-11.44-4.23-8.15-8.39-17-12.15-25.63C505,231,503.33,225.2,500.15,220c-15.32-25.18-31.81-40.38-57.35-55.32-5.43-3.17-12-4.43-18.89-6.07l-11.13-.67c-2.27-.95-4.62-3.72-6.75-5.07-8.46-5.35-30.16-17-36.43-1.71-4,9.64,5.91,19.06,9.44,23.95,2.48,3.43,5.66,7.27,7.42,11.13,1.17,2.54,1.37,5.08,2.37,7.76,2.45,6.58,4.58,13.8,7.75,19.9A70.69,70.69,0,0,0,402,223c1.25,1.7,3.38,2.44,3.71,5.06-2.08,2.92-2.2,7.44-3.37,11.13-5.28,16.63-3.29,37.29,4.38,49.59,2.35,3.78,7.89,11.88,15.52,8.77,6.66-2.72,5.15-11.12,7.08-18.55.43-1.69.17-2.92,1-4v.34l6.08,12.14c4.49,7.24,12.47,14.8,19.22,19.91,3.51,2.65,6.3,7.22,10.8,8.77v-.34h-.34c-.88-1.37-2.25-1.93-3.37-3a77.63,77.63,0,0,1-7.76-8.77,205.24,205.24,0,0,1-16.53-27c-2.36-4.54-4.42-9.54-6.41-14.16-.76-1.78-.76-4.48-2.36-5.4-2.18,3.39-5.39,6.12-7.08,10.12-2.7,6.39-3.05,14.18-4.05,22.26-.59.22-.33.07-.67.34-4.7-1.13-6.35-6-8.1-10.12-4.42-10.5-5.23-27.39-1.35-39.46,1-3.13,5.55-13,3.71-15.86-.88-2.88-3.77-4.57-5.4-6.75a52.89,52.89,0,0,1-5.39-9.44c-3.62-8.18-5.31-17.37-9.11-25.64-1.82-4-4.89-8-7.42-11.44-2.8-3.89-5.93-6.76-8.09-11.44-.78-1.68-1.82-4.35-.68-6.07a2.64,2.64,0,0,1,2-2c1.95-1.51,7.4.5,9.44,1.35A83.09,83.09,0,0,1,402,160.62c2.2,1.43,4.42,4.28,7.08,5.07h3c4.75,1.09,10.07.34,14.5,1.68a88.14,88.14,0,0,1,21.25,10.12,131.51,131.51,0,0,1,46.22,50.63c1.75,3.35,2.5,6.56,4,10.12,3.11,7.15,7,14.57,10.12,21.59s6.1,14.07,10.46,19.9c2.3,3.06,11.16,4.71,15.18,6.4,2.82,1.2,7.45,2.44,10.12,4.05,5.11,3.08,10,6.75,14.84,10.13,2.4,1.68,9.76,5.38,10.12,8.43Z"/>
    <path class="cls-3" d="M418.17,180.13a23.62,23.62,0,0,0-6.07.68v.33h.34c1.17,2.43,3.26,4,4.71,6.08l3.38,7.08.34-.34c2.09-1.47,3-3.83,3-7.42-.84-.88-1-2-1.69-3-1-1.4-2.86-2.2-4-3.38Z"/>
  </g>
  <path class="cls-4" d="M561,405.83a14.22,14.22,0,1,0,14.22-14.22A14,14,0,0,0,561,405.83Zm25.25,0a11,11,0,1,1-11-11.26A11,11,0,0,1,586.28,405.83ZM579.07,414h3.19l-4.66-7.13c2.5-.26,4.39-1.48,4.39-4.44,0-3.3-2.09-4.66-6.1-4.66h-6.34V414h2.73v-7h2.54l4.25,7Zm-6.79-9.3V400h3.15c1.63,0,3.6.31,3.6,2.2,0,2.28-1.78,2.47-3.83,2.47h-2.92Z"/>
</svg>
