<svg id="Capa_1" data-name="Capa 1" xmlns="http://www.w3.org/2000/svg" xmlns:xlink="http://www.w3.org/1999/xlink" viewBox="0 0 595.28 595.28">
  <defs>
    <style>
      .cls-1 {
        fill: none;
      }

      .cls-2, .cls-4 {
        fill: #689f63;
      }

      .cls-3 {
        fill: #333;
      }

      .cls-3, .cls-4 {
        fill-rule: evenodd;
      }

      .cls-5 {
        clip-path: url(#clip-path);
      }

      .cls-6 {
        fill: url(#Degradado_sin_nombre_4);
      }

      .cls-7 {
        clip-path: url(#clip-path-2);
      }

      .cls-8 {
        fill: url(#Degradado_sin_nombre_2);
      }

      .cls-9 {
        clip-path: url(#clip-path-3);
      }

      .cls-10 {
        fill: url(#Degradado_sin_nombre_3);
      }
    </style>
    <clipPath id="clip-path">
      <path id="SVGID" class="cls-1" d="M219.57,190l-55.2,31.86a6.67,6.67,0,0,0-3.34,5.78v63.77a6.65,6.65,0,0,0,3.34,5.77l55.21,31.89a6.68,6.68,0,0,0,6.67,0l55.2-31.89a6.66,6.66,0,0,0,3.33-5.77V227.62a6.67,6.67,0,0,0-3.34-5.78L226.24,190a6.71,6.71,0,0,0-6.68,0"/>
    </clipPath>
    <linearGradient id="Degradado_sin_nombre_4" data-name="Degradado sin nombre 4" x1="15.38" y1="-1217.34" x2="16.95" y2="-1217.34" gradientTransform="matrix(-50.75, 103.54, 103.54, 50.75, 127081.55, 60369.73)" gradientUnits="userSpaceOnUse">
      <stop offset="0.3" stop-color="#3e863d"/>
      <stop offset="0.5" stop-color="#55934f"/>
      <stop offset="0.8" stop-color="#5aad45"/>
    </linearGradient>
    <clipPath id="clip-path-2">
      <path id="SVGID-2" data-name="SVGID" class="cls-1" d="M162.4,295.44a6.61,6.61,0,0,0,2,1.72l47.36,27.36,7.89,4.53a6.71,6.71,0,0,0,3.85.87,6.54,6.54,0,0,0,1.31-.23L283,223.07a6.47,6.47,0,0,0-1.55-1.23L245.29,201l-19.11-11a6.83,6.83,0,0,0-1.73-.7Z"/>
    </clipPath>
    <linearGradient id="Degradado_sin_nombre_2" data-name="Degradado sin nombre 2" x1="-6.15" y1="-1233.48" x2="-5.13" y2="-1233.48" gradientTransform="matrix(142.41, -105.22, -105.22, -142.41, -128762.89, -175990.18)" gradientUnits="userSpaceOnUse">
      <stop offset="0.57" stop-color="#3e863d"/>
      <stop offset="0.72" stop-color="#619857"/>
      <stop offset="1" stop-color="#76ac64"/>
    </linearGradient>
    <clipPath id="clip-path-3">
      <path id="SVGID-3" data-name="SVGID" class="cls-1" d="M222.24,189.12a6.61,6.61,0,0,0-2.66.86l-55.05,31.77,59.36,108.12a6.56,6.56,0,0,0,2.37-.82l55.21-31.89a6.67,6.67,0,0,0,3.22-4.55L224.18,189.23a6.86,6.86,0,0,0-1.35-.13l-.55,0"/>
    </clipPath>
    <linearGradient id="Degradado_sin_nombre_3" data-name="Degradado sin nombre 3" x1="0.82" y1="-1239.55" x2="1.75" y2="-1239.55" gradientTransform="matrix(129.89, 0, 0, -129.89, 57.81, -160743.94)" gradientUnits="userSpaceOnUse">
      <stop offset="0.16" stop-color="#6bbf47"/>
      <stop offset="0.38" stop-color="#79b461"/>
      <stop offset="0.47" stop-color="#75ac64"/>
      <stop offset="0.7" stop-color="#659e5a"/>
      <stop offset="0.9" stop-color="#3e863d"/>
    </linearGradient>
  </defs>
  <g>
    <path class="cls-2" d="M295.48,463a10.94,10.94,0,0,1-5.49-1.47l-17.48-10.35c-2.61-1.46-1.34-2-.48-2.27a35.27,35.27,0,0,0,7.91-3.6,1.3,1.3,0,0,1,1.3.09l13.42,8a1.8,1.8,0,0,0,1.63,0l52.35-30.22a1.67,1.67,0,0,0,.8-1.42V361.31a1.69,1.69,0,0,0-.81-1.44L296.3,329.68a1.6,1.6,0,0,0-1.61,0l-52.32,30.19a1.66,1.66,0,0,0-.83,1.43v60.41a1.59,1.59,0,0,0,.81,1.4l14.33,8.28c7.79,3.9,12.55-.69,12.55-5.3V366.46a1.48,1.48,0,0,1,1.52-1.5h6.63a1.49,1.49,0,0,1,1.5,1.5v59.65c0,10.38-5.66,16.34-15.5,16.34-3,0-5.41,0-12.07-3.27l-13.73-7.92a11,11,0,0,1-5.49-9.55V361.3a11,11,0,0,1,5.49-9.54L290,321.53a11.51,11.51,0,0,1,11,0l52.34,30.24a11.06,11.06,0,0,1,5.49,9.54v60.41a11.07,11.07,0,0,1-5.49,9.54L301,461.49a11,11,0,0,1-5.52,1.47"/>
    <path class="cls-2" d="M311.65,421.36c-22.91,0-27.71-10.51-27.71-19.33a1.51,1.51,0,0,1,1.52-1.51h6.76a1.52,1.52,0,0,1,1.49,1.28c1,6.89,4.06,10.37,17.91,10.37,11,0,15.73-2.49,15.73-8.34,0-3.37-1.34-5.88-18.48-7.55-14.33-1.42-23.19-4.58-23.19-16,0-10.56,8.91-16.85,23.84-16.85,16.76,0,25.06,5.81,26.11,18.32a1.53,1.53,0,0,1-.4,1.16,1.58,1.58,0,0,1-1.12.49h-6.8a1.51,1.51,0,0,1-1.47-1.18c-1.64-7.25-5.59-9.57-16.35-9.57-12,0-13.45,4.19-13.45,7.34,0,3.81,1.66,4.93,17.9,7.08s23.74,5.15,23.74,16.45-9.52,17.94-26.11,17.94m63.77-64.06h1.75a1.53,1.53,0,0,0,1.72-1.6c0-1.55-1.06-1.55-1.65-1.55h-1.81Zm-2.14-5h3.89c1.34,0,4,0,4,3a2.6,2.6,0,0,1-2.14,2.78c1.56.11,1.67,1.13,1.88,2.57a10.76,10.76,0,0,0,.59,3H379c-.07-.53-.43-3.41-.43-3.57-.16-.64-.38-1-1.18-1h-2v4.53H373.2ZM368.52,358A8.46,8.46,0,1,0,377,349.6a8.47,8.47,0,0,0-8.43,8.44m18.56,0A10.1,10.1,0,1,1,377,348a10.13,10.13,0,0,1,10.09,10.09"/>
    <path class="cls-3" d="M133.37,226.62a6.72,6.72,0,0,0-3.36-5.83l-55.5-31.93a6.52,6.52,0,0,0-3.05-.88h-.57a6.59,6.59,0,0,0-3.07.88l-55.5,31.93A6.76,6.76,0,0,0,9,226.62l.12,86a3.31,3.31,0,0,0,1.67,2.9,3.2,3.2,0,0,0,3.32,0l33-18.9a6.78,6.78,0,0,0,3.36-5.82V250.64a6.69,6.69,0,0,1,3.34-5.81l14-8.09a6.69,6.69,0,0,1,3.36-.9,6.58,6.58,0,0,1,3.33.9l14,8.09a6.69,6.69,0,0,1,3.36,5.8v40.18a6.77,6.77,0,0,0,3.36,5.82l33,18.89a3.31,3.31,0,0,0,3.36,0,3.39,3.39,0,0,0,1.66-2.9ZM395.28,271.4a1.67,1.67,0,0,1-.84,1.45l-19.07,11a1.66,1.66,0,0,1-1.67,0l-19.07-11a1.67,1.67,0,0,1-.84-1.45v-22a1.68,1.68,0,0,1,.83-1.45l19.05-11a1.7,1.7,0,0,1,1.69,0l19.07,11a1.67,1.67,0,0,1,.84,1.45Zm5.15-163a3.35,3.35,0,0,0-5,2.94v85.17a2.35,2.35,0,0,1-3.52,2l-13.9-8a6.68,6.68,0,0,0-6.7,0l-55.52,32a6.68,6.68,0,0,0-3.36,5.79v64.11a6.7,6.7,0,0,0,3.36,5.8l55.52,32.07a6.73,6.73,0,0,0,6.7,0l55.53-32.08a6.73,6.73,0,0,0,3.35-5.81V132.68a6.72,6.72,0,0,0-3.45-5.86ZM585.32,248.81a6.7,6.7,0,0,0,3.33-5.79V227.48a6.71,6.71,0,0,0-3.34-5.8l-55.17-32a6.67,6.67,0,0,0-6.72,0l-55.51,32a6.68,6.68,0,0,0-3.35,5.8v64.08a6.71,6.71,0,0,0,3.38,5.83l55.15,31.44a6.68,6.68,0,0,0,6.58,0L563,310.35a3.35,3.35,0,0,0,0-5.84l-55.85-32.05a3.32,3.32,0,0,1-1.69-2.89V249.46a3.32,3.32,0,0,1,1.68-2.9l17.37-10a3.28,3.28,0,0,1,3.34,0l17.39,10a3.33,3.33,0,0,1,1.68,2.9v15.8a3.35,3.35,0,0,0,5,2.9Z"/>
    <path class="cls-4" d="M526,245.81a1.27,1.27,0,0,1,1.28,0L537.91,252a1.31,1.31,0,0,1,.64,1.11v12.31a1.29,1.29,0,0,1-.64,1.11l-10.66,6.15a1.27,1.27,0,0,1-1.28,0l-10.65-6.15a1.26,1.26,0,0,1-.65-1.11V253.07a1.26,1.26,0,0,1,.64-1.11Z"/>
    <g class="cls-5">
      <path class="cls-6" d="M340.57,216.43,185,140.18,105.24,302.9,260.8,379.15Z"/>
    </g>
    <g class="cls-7">
      <path class="cls-8" d="M95.14,239,205,387.66,350.26,280.32,240.4,131.66Z"/>
    </g>
    <g class="cls-9">
      <path class="cls-10" d="M164.52,189.1V329.88H284.67V189.1Z"/>
    </g>
  </g>
</svg>
