<svg id="Capa_1" data-name="Capa 1" xmlns="http://www.w3.org/2000/svg" xmlns:xlink="http://www.w3.org/1999/xlink" viewBox="0 0 595.28 595.28">
  <defs>
    <style>
      .cls-1 {
        fill: url(#Degradado_sin_nombre_18);
      }

      .cls-2 {
        fill: #f6de74;
      }

      .cls-3 {
        fill: url(#Degradado_sin_nombre_8);
      }

      .cls-4 {
        fill: url(#Degradado_sin_nombre_13);
      }
    </style>
    <linearGradient id="Degradado_sin_nombre_18" data-name="Degradado sin nombre 18" x1="178.42" y1="591.72" x2="178.42" y2="297.01" gradientUnits="userSpaceOnUse">
      <stop offset="0" stop-color="#f3ce2e"/>
      <stop offset="1" stop-color="#f9e78a"/>
    </linearGradient>
    <linearGradient id="Degradado_sin_nombre_8" data-name="Degradado sin nombre 8" x1="417.09" y1="591.72" x2="417.09" y2="3.57" gradientUnits="userSpaceOnUse">
      <stop offset="0" stop-color="#b35300"/>
      <stop offset="1" stop-color="#eab90b"/>
    </linearGradient>
    <linearGradient id="Degradado_sin_nombre_13" data-name="Degradado sin nombre 13" x1="297.04" y1="591.72" x2="297.04" y2="150.15" gradientUnits="userSpaceOnUse">
      <stop offset="0" stop-color="#df9900"/>
      <stop offset="1" stop-color="#f8e37f"/>
    </linearGradient>
  </defs>
  <path class="cls-1" d="M281,424.06q0-.57,0-1.14a2.2,2.2,0,0,0-.12-.64c0-.18.06-.37.11-.56,0-.62,0-1.24,0-1.87q0-26.72,0-53.44c0-.62,0-1.24-.08-1.86.16-8,.05-16,.06-24.05a1.69,1.69,0,0,0-.57-1.54h0c.76-.53.6-1.34.6-2.07,0-4.59,0-9.18,0-13.77a33.9,33.9,0,0,0-.37-5.14c-1.59-11.56-12.26-20.89-23.92-20.95-3.25,0-6.5,0-9.76,0H197.21c-.94,0-1.94-.21-2.73.56-.62,0-1.24,0-1.86,0q-45.94,0-91.88,0a24.12,24.12,0,0,0-12.59,3.19c-7.24,4.25-11.66,10.63-12.1,18.95-.5,9.45-.09,18.94-.08,28.42,0,.33,0,.66,0,1q0,40.5,0,81c0,.33,0,.67,0,1s0,.67,0,1q0,38.93,0,77.84c0,.33,0,.67,0,1,0,.52,0,1.05,0,1.57q0,17.68,0,35.37c0,4.06,0,8.11,0,12.17,0,2.48-.11,5,0,7.45.34,10.13,5.12,17.43,14.19,21.94,2.33,1.16,4.87,1.55,7.34,2.2H280.41l0-38.48h0c0-3.2,0-6.39,0-9.59q0-21.06,0-42.1h0q0-4.74,0-9.46c.74-.68.59-1.58.59-2.43Q281,456.87,281,424.06Z"/>
  <path class="cls-2" d="M376.11,150.29l-1.72,0H219l-1.86,0a7,7,0,0,1,2.41-.17h93.65c.57,0,1.14-.05,1.71-.08,2.34,0,4.69,0,7,0H374A4.37,4.37,0,0,1,376.11,150.29Z"/>
  <path class="cls-3" d="M519.34,496.66q0-50.19,0-100.38c0-.43,0-.86-.05-1.29s0-.95,0-1.43q0-87.31,0-174.62c0-.48,0-1-.06-1.43,0-.29,0-.58,0-.86q0-94.52,0-189A24.24,24.24,0,0,0,504.13,5.28a54.17,54.17,0,0,0-6.32-1.71H336.41c-.12.07-.24.19-.36.2C325.15,5,314.76,14.7,314.82,29.09c.19,40.31.08,80.63.08,120.94.62.66,1.44.42,2.17.42q27.58,0,55.18,0a14.33,14.33,0,0,1,3.27.31c1,.19,2,.09,3,.27a23.63,23.63,0,0,1,19.41,19.55c.13.73.12,1.56.92,2H399q0,40,0,80a4.69,4.69,0,0,0-.1,1.71q0,37.59,0,75.18c0,2.77,0,5.55,0,8.32,0,.06.07.1.1.15a1.16,1.16,0,0,0-.13.61c-.2,9.68-.08,19.35-.35,29-.46,15.95-.13,31.93-.13,47.89,0,4.35,0,8.7,0,13.05,0,.74-.15,1.56.56,2.13,0,.76,0,1.52,0,2.28l0,29.6h0q0,44.79,0,89.59,0,19.81,0,39.63h98.8a2.65,2.65,0,0,1,.64-.25,24.17,24.17,0,0,0,20.9-24.39q0-33.92,0-67.85c0-.47,0-1-.05-1.43S519.34,497,519.34,496.66Z"/>
  <path class="cls-4" d="M399.62,588.59q0-61.9,0-123.81c0-.77,0-1.53-.08-2.3.16-10.12.05-20.25.05-30.37a1.67,1.67,0,0,0-.57-1.54H399L399,379q0-7.5,0-15a4.27,4.27,0,0,0,.13-1.18q0-35.54,0-71.06a2.69,2.69,0,0,0-.13-1.23V290a4.59,4.59,0,0,0,.13-1.77q0-15.27,0-30.53a20,20,0,0,1,.43-5.12c.06-.86.05-1.72.05-2.58q0-37.22,0-74.43c0-.57,0-1.14,0-1.72a1.5,1.5,0,0,0-.62-1.37l-.23-.06h0a23.89,23.89,0,0,0-9.6-17.37,21.78,21.78,0,0,0-13.05-4.73,3.74,3.74,0,0,0-1.56-.11q-77.94,0-155.86,0a3.92,3.92,0,0,0-1.56.11,20.24,20.24,0,0,0-6.86,1.41,23.68,23.68,0,0,0-15.65,20.17c-.43,4.94-.07,9.94-.06,14.92,0,.52-.06,1-.06,1.57q0,20.83,0,41.67c0,1.57,0,3.14.05,4.72,0,.33-.06.66-.06,1v53.44c0,.33,0,.66.06,1,0,2.48-.05,5-.08,7.43.72,0,1.44,0,2.15,0h58.81a28.85,28.85,0,0,1,4.14.25,24.2,24.2,0,0,1,20.78,23.45c.2,5.88,0,11.76,0,17.64q0,12.81.05,25.6h0q0,28.56-.05,57.11c0,.67,0,1.34,0,2q0,30.68,0,61.36c0,2.26,0,4.52,0,6.78l-.16.1a2.74,2.74,0,0,0-.47,2c-.05,2.54.05,5.09-.06,7.64a19.25,19.25,0,0,1,.25,3.13c.1,3.2-.2,6.39-.21,9.58,0,13,.05,26,0,39a21.53,21.53,0,0,1,.1,5.26c-.13,10.41-.05,20.81-.05,31.22a2.22,2.22,0,0,0,.61,2H399C400,590.82,399.62,589.65,399.62,588.59Z"/>
</svg>
