<svg id="Capa_1" data-name="Capa 1" xmlns="http://www.w3.org/2000/svg" viewBox="0 0 595.28 595.28">
  <defs>
    <style>
      .cls-1 {
        fill: #55c1de;
      }
    </style>
  </defs>
  <g>
    <path class="cls-1" d="M479.75,129.39a232.33,232.33,0,0,1-6.82,61.4c-1.78,7.2.05,10.54,7.38,12.77,32.5,9.93,63.09,23.57,89,46.41,33,29.11,34.63,64.33,3.21,95.36-25.43,25.11-57.19,39.4-90.63,50.1-7.73,2.48-9.34,5.15-7.57,13.11,7.45,33.52,10.65,67.32,2.63,101.31a95.67,95.67,0,0,1-10.49,26.82c-13.14,22.27-36.3,31.4-64.61,24.89-35.85-8.24-64.77-28.89-91.16-53.18-8.24-7.59-12.59-8-21.11-.19-27.29,25-57.46,45.73-94.72,53.35-34.35,7-59.45-6.88-70.32-40.13-11.65-35.67-8.06-71.85-.33-107.62,2.32-10.73.91-14.83-10.32-18.21-29.27-8.81-56.56-22.18-80.19-42.1-1.42-1.2-2.86-2.36-4.22-3.62-36.06-33.38-35.36-70.54,1.91-102.64C56,226,85,212.85,115.83,203.9c10.29-3,11.19-7.2,9-16.2-7.53-31.64-9.84-63.66-4.25-95.92a96,96,0,0,1,4.81-17.08c13.19-35.28,43.1-47.25,82.93-33.43,31.78,11,58.64,30,83.1,52.47,5.8,5.33,8.92,6.14,15.11.39,22.36-20.79,46.62-39,75.27-50.57a124.16,124.16,0,0,1,28.89-7.84c24.3-3.52,45,7,56.54,28.65C478.29,85,480.49,107.35,479.75,129.39Zm-181,75.28c-14.07,0-28.15-.07-42.22,0-7.85.06-13.45,3.06-18,10.28-15.63,24.76-30.33,50-43.6,76.1-2.94,5.8-3.37,10.57-.24,16.57,14.08,26.92,28.93,53.36,45.69,78.74,3.45,5.23,7.3,7.17,13.51,7.55a754.71,754.71,0,0,0,91-.06c6.34-.38,10-2.63,13.31-7.8q24.22-37.95,44.85-77.95c3.48-6.77,3-12.21-.42-18.67-13.36-25.21-27.71-49.8-42.72-74.07-4.75-7.69-10.65-10.67-18.91-10.7C326.94,204.63,312.87,204.67,298.79,204.67Zm-271,94.51c1.75,12.8,9,22.95,18.47,31.57,23.57,21.33,52,33.53,81.79,43.22,4.56,1.48,6.69.62,8.09-4,6.73-22.35,15.58-43.9,25-65.2,1.87-4.2,1.39-7.58-.43-11.52a490.41,490.41,0,0,1-23.26-59.95c-1.92-6.13-4.53-8.65-11.07-6.56-29.82,9.52-58.39,21.49-82,42.75C35.72,277.24,29.21,286.65,27.77,299.18Zm115,172.49c-.54,14.36.76,29.05,6,43.16,7.06,18.87,19.35,26,39.12,22.19,36.08-6.91,63.72-28.48,90.17-52.15,4.54-4.07,2.14-6.68-.82-10-13.53-15.25-26.85-30.73-38.28-47.61-4.9-7.24-10.85-10.47-19.06-11-20.35-1.34-40.44-4.62-60.37-8.8-6-1.26-8.82.17-10,6.45C146,432.82,142.24,451.7,142.8,471.67Zm313.85-2.2c-1-18.81-2.76-37.58-6.8-56.1-1.27-5.84-3-8.59-10.24-7a439.31,439.31,0,0,1-64.71,9.91c-4.43.32-8.45,1.59-11.33,5.87-12.66,18.76-26.85,36.36-41.68,53.44-2.34,2.7-4.4,5-.75,8.33,26.13,24,53.63,46,89.45,53.55,18.45,3.9,30.64-3.61,37.75-21.17C454.42,501.32,455.74,485.49,456.65,469.47ZM142.81,126.94c-.4,20,3.38,38.88,6.8,57.84,1.42,7.84,4.75,8.84,12.24,7.4,20.33-3.91,40.85-6.94,61.39-9.63,5.64-.73,9.31-2.46,12.73-7.09,9.22-12.52,19.43-24.33,28.54-36.92,5.06-7,16.86-12.26,14.68-20.32-1.95-7.19-11.95-12.48-18.91-18-20.76-16.37-42.48-31.2-68.74-37.41-24-5.67-37.77,2.68-44.37,26.23A124.14,124.14,0,0,0,142.81,126.94Zm312,2.39c.63-13.14-.42-27.51-4.87-41.46-7.62-23.87-20.62-31.19-45-25.31a88.1,88.1,0,0,0-12.69,4.09c-26.86,11-49.26,28.54-70.62,47.69-4.22,3.78-3,6.53.21,10.16a627,627,0,0,1,41.54,52.2c2.23,3.14,4.56,5.23,8.84,5.66A555.67,555.67,0,0,1,439,192.88c5.31,1.19,8,.08,9.2-6C451.79,168.33,455.25,149.77,454.77,129.33ZM570.19,298.55c-1.2-11.89-7.79-20.8-16.13-28.36-23.87-21.64-52.92-33.53-83-43.3-5.48-1.78-8.09.18-9.74,5.5-6.35,20.53-14.6,40.35-23.26,60-1.93,4.37-2.23,8.25-.19,12.7,9.37,20.55,18.17,41.33,25,62.87,1.34,4.2,3,6.53,7.84,4.89,31-10.59,61-23.08,85.08-46.36C563.61,318.89,569.46,309.93,570.19,298.55ZM420.8,328.66l-34.38,60.68c18.14-.83,33.58-4.46,49.12-7.37,4.83-.91,4.34-4.46,3.21-7.75C433.58,359.3,428.4,344.36,420.8,328.66ZM264.66,179.44c21.86,0,41.48-.12,61.09.07,5.84.05,8.08-1.4,3.85-6.6-8.64-10.62-17.44-21.11-26.24-31.6-1.91-2.28-3.85-4.78-7.05-1.14C285.65,152.29,274.67,164.14,264.66,179.44ZM178,330.23c-8.25,16-13,31.75-18.22,47.28-1.53,4.51,1.61,4.7,4.6,5.36a359.44,359.44,0,0,0,48.2,7.4Zm34.72-121.77c-17.27,3-32.17,5.54-47,8.27-3.49.64-7.49.83-5.41,6.84,5.16,14.94,10.2,29.9,17.47,45.39C189.33,248.88,200.34,229.82,212.68,208.46ZM421.18,270c6-16.54,11.19-31.1,16.68-45.55,1.93-5.08-.11-6.5-4.69-7.3-15.23-2.67-30.42-5.6-46.25-8.54.39,2.23.29,3.4.78,4.24C398.32,231.09,409,249.26,421.18,270ZM263.73,420c12,14.28,22.15,26.33,32.29,38.36,2.89,3.43,5.63,2.83,8.22-.37,8.61-10.62,17.25-21.23,25.82-31.9,2.84-3.53,2.84-6.08-2.64-6.08Z"/>
    <path class="cls-1" d="M299.68,246.21a52.29,52.29,0,0,1,52.44,53.35c-.3,29.53-23.81,52.31-53.76,52.1a52.72,52.72,0,0,1-52.62-53.42C246.24,268.7,269.74,246,299.68,246.21Z"/>
  </g>
</svg>
