<svg id="Capa_1" data-name="Capa 1" xmlns="http://www.w3.org/2000/svg" viewBox="0 0 595.28 595.28">
  <defs>
    <style>
      .cls-1 {
        fill: #e24f26;
      }

      .cls-2 {
        fill: #ee642a;
      }

      .cls-3 {
        fill: #eaeaea;
      }

      .cls-4 {
        fill: #ee652a;
      }

      .cls-5 {
        fill: #fefefe;
      }
    </style>
  </defs>
  <path class="cls-1" d="M36.88,2H559.61c1.47,2.25,1.2,4.78,1,7.2-1.76,17.81-3.27,35.64-4.85,53.46-1.61,18.19-3.15,36.39-4.8,54.58-1.61,17.82-3.26,35.63-4.81,53.46q-2,23.23-4.1,46.46-2.38,26.73-4.8,53.46c-1.39,15.12-2.68,30.24-4,45.36s-2.75,30.23-4,45.35c-1.34,15.49-2.79,31-4.12,46.46-1.29,15.13-2.71,30.24-4,45.36-1.11,12.54-2.26,25.07-3.35,37.61-1.21,13.89-2.4,27.79-3.73,41.67-.32,3.4-2.57,4.48-5.31,5.28-11.15,3.27-22.34,6.35-33.52,9.49Q419.57,562.8,364.1,578.43c-16.53,4.63-33.08,9.22-49.58,14-5.21,1.5-10.65,1.61-15.9,2.78h-2.23c-24.38-3.6-47.51-12-71.13-18.54-45.13-12.45-90.13-25.34-135.17-38.13-.47-.14-1-.25-1.43-.4-5.57-1.71-6.3-2.62-6.81-8.57C79.5,502,76.92,474.48,74.52,447q-3.43-39.46-7-78.91c-2.32-26.3-4.76-52.6-7.09-78.9q-3.12-35.4-6.25-70.79-3.48-39.47-7.09-78.9c-1.87-20.89-3.65-41.79-5.51-62.68-2.08-23.23-4.1-46.46-6.25-69.68C35.17,5.18,35.18,3.36,36.88,2Z"/>
  <path class="cls-2" d="M134.1,111.15c1.76-1.32,3.81-.84,5.74-.84q76,0,152,0c6.77,0,6.77,0,6.77-7q0-26.7,0-53.38c0-4.67.22-4.9,4.74-4.9H506.52c4.64,0,5.24.47,4.84,5.12-1,12.4-2.31,24.79-3.43,37.18-1.09,12.16-2.11,24.32-3.19,36.47-1.13,12.77-2.33,25.53-3.46,38.3-.85,9.58-1.64,19.16-2.47,28.74s-1.65,19.16-2.5,28.74q-1.33,14.91-2.69,29.82-1.72,19-3.45,37.93c-.85,9.58-1.63,19.16-2.48,28.74-1.13,12.64-2.31,25.28-3.44,37.93-.85,9.45-1.64,18.91-2.49,28.36-1.15,12.89-2.34,25.78-3.49,38.67-.84,9.33-1.62,18.67-2.44,28q-1.74,19.69-3.5,39.41c-.28,3.19-.76,6.37-.87,9.57-.09,2.58-1.4,3.68-3.71,4.31-13.94,3.8-27.86,7.68-41.8,11.52L310.19,545.71c-2.5.69-5.06,1.22-7.5,2.06-3,1-4.12.12-4.1-3,.08-8.65,0-17.3,0-25.95q0-18.54,0-37.07a1.23,1.23,0,0,1-.07-1.27c1.07-1.59,2.83-1.87,4.48-2.33,39.4-10.84,78.78-21.79,118.2-32.56l1.42-.41c7.06-2.09,7.77-3.28,8.4-10.61q2.06-24,4.17-47.91,2.06-23.42,4-46.82c1.06-12.41,2.23-24.81,3.3-37.22,1.11-12.91,2.36-25.8,3.31-38.71.34-4.68,1.2-9.3,1.63-14,.35-3.78-.64-4.87-4.49-5.1-1.48-.08-3,0-4.44,0H310c-4.45,0-8.89,0-13.34-.19-22.12.42-44.24.09-66.35.18-4.94,0-9.89.12-14.83-.07-4.44-.18-5.67-1.3-6-5.76-.7-8.61-1.56-17.21-2.24-25.83-.88-10.95-1.86-21.89-2.82-32.84-.44-5.08.59-6.5,5.47-6.52,29-.07,58.07-.35,87.1.13,18.41-.5,36.82-.17,55.22-.21,30.77-.06,61.54,0,92.3,0,1.49,0,3,.05,4.45,0,4-.23,5.35-1.27,5.85-5.25,1.14-9.06,1.86-18.17,2.83-27.25.78-7.24,1.53-14.49,1.94-21.76.27-4.7-1-6.3-5.78-6.51-1.6-.07-3.21,0-4.82,0H305.49c-2.84,0-5.68,0-8.53-.17-2.09.1-4.19.17-6.29.17q-74.27,0-148.51,0C139.41,112.81,136.4,113.56,134.1,111.15Z"/>
  <path class="cls-3" d="M134.1,111.15c1.11-.05,2.22-.14,3.33-.14H294.59c.86,0,1.73.08,2.59.12,1.59,1.18,1.7,2.93,1.71,4.67q.18,27.58,0,55.17c0,1.71,0,3.51-1.73,4.63-11,0-22,.13-33,.15-18.29,0-36.58,0-54.87,0-2.42,0-3.52.34-3.26,3.22q2.74,29.88,5.14,59.8c.27,3.38,1.25,4.42,4.81,4.4,27.06-.14,54.12,0,81.18,0,1.64,1.17,1.7,2.93,1.71,4.67q.17,28.33,0,56.68a6.8,6.8,0,0,1-.71,3.59,3,3,0,0,1-1,1.07c-1.6,0-3.2-.14-4.81-.14q-68.38,0-136.78.07c-3.27,0-4.35-.8-4.63-4.18-2-23.87-4.22-47.72-6.34-71.58q-3.51-39.3-7-78.6C136.43,140.2,135.29,125.67,134.1,111.15Z"/>
  <path class="cls-3" d="M298.8,481.14a2.72,2.72,0,0,1-.2.63c-14.62-4-29.26-7.88-43.86-11.9-29.47-8.11-58.91-16.31-88.4-24.35-2.6-.7-3.37-1.75-3.57-4.42q-3.61-48.18-7.58-96.33c-.23-2.76.47-3.31,3-3.3q29.27.13,58.53,0c2.65,0,3.19.9,3.39,3.35,1.25,15.25,2.75,30.48,4,45.73.19,2.31.94,3.29,3.31,3.92,22.39,5.93,44.74,12,67.1,18.1,1.3.35,2.63.77,4,.14a.8.8,0,0,1,1.09.53c-1.56,17.32-.35,34.68-.71,52C298.86,470.54,299.09,475.84,298.8,481.14Z"/>
  <path class="cls-4" d="M299.31,412.91l-.72-.21q0-49.38,0-98.77c0-1.74.11-3.5-1.41-4.78l-.08-.29c1.37-1.56,3.24-1.65,5.1-1.65q35.92-.1,71.84,0c4.79,0,6.37,1.32,5.9,6.34q-3.24,34.64-6.69,69.23c-.26,2.69-.48,5.4-.77,8.09-.35,3.33-2.3,4.68-5.1,5.49-5.82,1.66-11.66,3.24-17.5,4.79-14.91,4-29.79,8.06-44.7,12C303.28,413.64,301.2,414.82,299.31,412.91Z"/>
  <path class="cls-5" d="M299.31,412.91c22.58-6.14,45.15-12.33,67.76-18.35,2.56-.68,3.47-1.66,3.72-4.34q3.63-39.42,7.6-78.81c.27-2.68-1.13-2.41-2.78-2.41q-20.75,0-41.47,0c-12.34,0-24.68-.09-37-.14q0-32.85.05-65.72c2.23,0,4.45-.13,6.67-.13q71.32,0,142.66-.08c3.14,0,3.82.63,3.44,3.81-5.23,43.51-8,87.26-12.05,130.89q-3,32.26-5.76,64.55a2.93,2.93,0,0,1-2.47,3.05q-65.26,17.91-130.5,35.86c-.12,0-.25,0-.37.05-1.65-.79-1.65-2.3-1.65-3.79q0-30.08,0-60.16C297.12,415.3,297.55,413.81,299.31,412.91Z"/>
  <path class="cls-5" d="M297.16,175.59q0-32.24,0-64.47c1.23-.05,2.46-.14,3.69-.14q78.35,0,156.68-.1c3.69,0,4.47,1,4.24,4.49-1.15,17.24-3.36,34.38-4.93,51.58-.25,2.79.84,6.48-1.16,8.17-2.23,1.88-5.93.63-9,.63q-74.26.13-148.53.16A3.88,3.88,0,0,1,297.16,175.59Z"/>
</svg>
