<svg id="Capa_1" data-name="Capa 1" xmlns="http://www.w3.org/2000/svg" viewBox="0 0 595.28 595.28">
  <defs>
    <style>
      .cls-1 {
        fill: #fff;
      }

      .cls-2 {
        fill: #d4b830;
      }

      .cls-3, .cls-4 {
        fill: #ebebeb;
        opacity: 0.99;
        isolation: isolate;
      }

      .cls-3 {
        fill-opacity: 0;
      }

      .cls-4 {
        fill-opacity: 0.92;
      }

      .cls-5 {
        fill: #fdd83c;
      }
    </style>
  </defs>
  <rect class="cls-1" x="278.33" y="18.53" width="215.62" height="482.82"/>
  <g id="g5193">
    <path id="path5113" class="cls-2" d="M87.69,533.56,39.83,6.69l515.61.2L508,533.16,297.24,592.68ZM469.17,504.8l40-451.26H298l1.61,497.71ZM278.33,119.7H227.05l-.6,270.07-99.54-27.14.2,61.73,151.22,40.83V119.7Z"/>
    <path id="path5159" class="cls-3" d="M261.44,460.16c-6.64-2-39.41-10.86-72.8-19.91L128.11,424V393.6c0-29.77,0-30.37,3-29.36,1.61.6,23.73,6.63,49.07,13.67l46.05,12.67.4-134.73.4-134.74h50.28V292.44c0,136.15-.4,171.34-1.81,171.34-1-.2-7.44-1.81-14.08-3.62Z"/>
    <path id="path5157" class="cls-4" d="M127.11,424.36l-.2-61.73s63.54,17.89,99.54,27.14l.6-269.86h51.28V465.19L127.11,424.36Z"/>
    <path id="path5117" class="cls-5" d="M298,53.34H509.19l-40,451.26L298,551.05ZM458.31,429l13.88-168.72L369.63,271.73V181.64l109.4-.4,4.42-61.54-165.1.81,2.21,224,99.75-17.09-1.41,49.87L318.35,404.05l1,61.14,139-36.2Z"/>
  </g>
</svg>
